<?xml version="1.0" standalone="no"?>
<!DOCTYPE svg PUBLIC "-//W3C//DTD SVG 20010904//EN"
 "http://www.w3.org/TR/2001/REC-SVG-20010904/DTD/svg10.dtd">
<svg version="1.0" xmlns="http://www.w3.org/2000/svg"
 width="1674.000000pt" height="1674.000000pt" viewBox="0 0 1674.000000 1674.000000"
 preserveAspectRatio="xMidYMid meet">
<metadata>
Created by potrace 1.14, written by Peter Selinger 2001-2017
</metadata>
<g transform="translate(0.000000,1674.000000) scale(0.100000,-0.100000)"
fill="#000000" stroke="none">
<path d="M16620 15715 c0 -34 -1 -35 -40 -35 -39 0 -40 -1 -40 -35 0 -33 -2
-35 -35 -35 -34 0 -35 -1 -35 -40 l0 -40 -40 0 c-39 0 -40 -1 -40 -35 0 -33
-2 -35 -35 -35 -33 0 -35 -2 -35 -34 l0 -34 -70 -7 -70 -7 0 -34 c0 -33 -1
-34 -40 -34 -39 0 -40 -1 -40 -34 0 -33 -2 -35 -37 -38 -36 -3 -38 -5 -41 -40
-3 -36 -5 -38 -38 -38 -32 0 -34 -2 -34 -35 0 -34 -1 -35 -40 -35 -39 0 -40
-1 -40 -35 0 -33 -2 -35 -35 -35 -34 0 -35 -1 -35 -40 l0 -40 -69 0 -70 0 -3
-37 c-3 -36 -5 -38 -40 -41 -36 -3 -38 -5 -38 -38 0 -32 -2 -34 -35 -34 -33 0
-35 -2 -35 -35 0 -34 -1 -35 -40 -35 -39 0 -40 -1 -40 -34 0 -33 -2 -35 -37
-38 -36 -3 -38 -5 -41 -40 l-3 -38 -70 0 -69 0 0 -40 c0 -39 -1 -40 -35 -40
-33 0 -35 -2 -35 -35 0 -34 -1 -35 -40 -35 -39 0 -40 -1 -40 -34 0 -33 -2 -35
-37 -38 -36 -3 -38 -5 -41 -40 -3 -36 -5 -38 -38 -38 -32 0 -34 -2 -34 -35 0
-34 -1 -35 -40 -35 -39 0 -40 -1 -40 -34 l0 -34 -70 -7 -70 -7 0 -34 c0 -32
-2 -34 -35 -34 -33 0 -35 -2 -35 -35 0 -34 -1 -35 -40 -35 l-40 0 0 -40 c0
-39 -1 -40 -35 -40 -33 0 -35 -2 -35 -35 0 -34 -1 -35 -40 -35 -39 0 -40 -1
-40 -34 0 -33 -2 -35 -37 -38 -36 -3 -38 -5 -41 -40 l-3 -38 -70 0 -69 0 0
-40 c0 -39 -1 -40 -35 -40 -33 0 -35 -2 -35 -35 0 -34 -1 -35 -40 -35 -39 0
-40 -1 -40 -34 0 -33 -2 -35 -37 -38 -36 -3 -38 -5 -41 -40 -3 -36 -5 -38 -38
-38 -32 0 -34 -2 -34 -34 l0 -33 -69 -7 c-70 -7 -70 -7 -73 -39 -3 -29 -6 -32
-40 -35 -36 -3 -38 -5 -38 -38 0 -32 -2 -34 -35 -34 -33 0 -35 -2 -35 -35 0
-34 -1 -35 -40 -35 l-40 0 0 -40 c0 -39 -1 -40 -35 -40 -33 0 -35 -2 -35 -35
0 -34 -1 -35 -40 -35 -39 0 -40 -1 -40 -34 l0 -34 -70 -7 -70 -7 0 -34 c0 -33
-1 -34 -40 -34 l-40 0 0 -40 c0 -39 -1 -40 -35 -40 -33 0 -35 -2 -35 -35 0
-34 -1 -35 -40 -35 -39 0 -40 -1 -40 -35 0 -33 -2 -35 -34 -35 -33 0 -35 -2
-38 -37 l-3 -38 -72 -3 -73 -3 0 -34 c0 -33 -2 -35 -35 -35 -34 0 -35 -1 -35
-40 l0 -40 -40 0 c-39 0 -40 -1 -40 -35 0 -33 -2 -35 -35 -35 -33 0 -35 -2
-35 -34 0 -33 -2 -35 -37 -38 -36 -3 -38 -5 -41 -40 -3 -36 -5 -38 -38 -38
-32 0 -34 -2 -34 -34 l0 -34 -75 -7 -75 -7 0 -34 c0 -32 -2 -34 -35 -34 -33 0
-35 -2 -35 -35 0 -34 -1 -35 -40 -35 -39 0 -40 -1 -40 -35 0 -33 -2 -35 -35
-35 -34 0 -35 -1 -35 -40 l0 -40 -40 0 c-39 0 -40 -1 -40 -35 0 -33 -2 -35
-35 -35 -33 0 -35 -2 -35 -34 l0 -34 -75 -7 -75 -7 0 -34 c0 -32 -2 -34 -35
-34 -34 0 -35 -1 -35 -40 l0 -40 -40 0 c-39 0 -40 -1 -40 -35 0 -33 -2 -35
-35 -35 -33 0 -35 -2 -35 -34 0 -33 -2 -35 -37 -38 -36 -3 -38 -5 -41 -40 l-3
-38 -70 0 -69 0 0 -34 c0 -33 -2 -35 -37 -38 -36 -3 -38 -5 -41 -40 -3 -36 -5
-38 -38 -38 -32 0 -34 -2 -34 -35 0 -34 -1 -35 -40 -35 -39 0 -40 -1 -40 -35
0 -33 -2 -35 -35 -35 -34 0 -35 -1 -35 -40 l0 -40 -40 0 c-39 0 -40 -1 -40
-34 l0 -34 -70 -7 -70 -7 0 -34 c0 -33 -1 -34 -40 -34 -39 0 -40 -1 -40 -35 0
-33 -2 -35 -35 -35 -34 0 -35 -1 -35 -40 l0 -40 -40 0 c-39 0 -40 -1 -40 -35
0 -33 -2 -35 -35 -35 -33 0 -35 -2 -35 -34 l0 -34 -70 -7 -70 -7 0 -34 c0 -33
-1 -34 -40 -34 -39 0 -40 -1 -40 -34 0 -33 -2 -35 -37 -38 -36 -3 -38 -5 -41
-40 -3 -36 -5 -38 -38 -38 -32 0 -34 -2 -34 -35 0 -34 -1 -35 -40 -35 -39 0
-40 -1 -40 -35 0 -33 -2 -35 -35 -35 -34 0 -35 -1 -35 -40 l0 -40 -69 0 -70 0
-3 -37 c-3 -36 -5 -38 -40 -41 -36 -3 -38 -5 -38 -38 0 -32 -2 -34 -35 -34
-33 0 -35 -2 -35 -35 0 -34 -1 -35 -40 -35 l-40 0 0 -40 c0 -39 -1 -40 -35
-40 -33 0 -35 -2 -35 -35 0 -33 2 -35 35 -35 33 0 35 2 35 34 0 33 2 35 38 38
34 3 37 6 40 35 3 32 3 32 73 39 l69 7 0 33 c0 31 2 33 38 36 35 3 37 5 40 41
3 35 5 37 38 37 32 0 34 2 34 35 0 34 1 35 40 35 39 0 40 1 40 35 0 33 2 35
35 35 34 0 35 1 35 40 l0 40 69 0 70 0 3 38 c3 35 5 37 41 40 35 3 37 5 37 38
0 33 1 34 40 34 l40 0 0 -40 0 -40 -40 0 c-39 0 -40 -1 -40 -35 0 -33 -2 -35
-35 -35 -33 0 -35 -2 -35 -34 0 -33 -2 -35 -37 -38 -36 -3 -38 -5 -41 -40 -3
-36 -5 -38 -38 -38 -32 0 -34 -2 -34 -34 0 -33 -2 -35 -37 -38 -35 -3 -38 -6
-41 -35 -3 -28 -7 -32 -35 -35 -29 -3 -32 -6 -35 -40 l-3 -38 -69 0 -69 0 -3
-37 c-3 -36 -5 -38 -40 -41 -36 -3 -38 -5 -38 -38 0 -32 -2 -34 -34 -34 -33 0
-33 -1 -40 -52 -11 -97 -11 -98 34 -98 l40 0 0 40 c0 39 1 40 35 40 33 0 35 2
35 35 0 34 1 35 40 35 39 0 40 1 40 35 0 33 2 35 35 35 34 0 35 1 35 40 l0 40
40 0 c39 0 40 1 40 35 0 33 2 35 35 35 33 0 35 2 35 34 l0 34 70 7 70 7 0 34
c0 33 1 34 40 34 l40 0 0 40 0 40 40 0 c39 0 40 1 40 35 0 33 2 35 35 35 33 0
35 2 35 34 0 33 2 35 38 38 35 3 37 5 40 41 3 35 5 37 38 37 32 0 34 2 34 35
0 33 2 35 35 35 33 0 35 2 35 34 0 33 2 35 38 38 35 3 37 5 40 41 l3 37 69 0
69 0 3 38 c3 35 5 37 41 40 35 3 37 5 37 38 0 32 2 34 35 34 33 0 35 2 35 35
0 34 1 35 40 35 l40 0 0 40 c0 39 1 40 35 40 33 0 35 2 35 35 0 34 1 35 40 35
39 0 40 1 40 35 0 33 2 35 34 35 33 0 35 2 38 38 3 35 5 37 41 40 35 3 37 5
37 37 l0 33 70 7 70 7 0 34 c0 33 1 34 40 34 39 0 40 1 40 35 0 33 2 35 35 35
34 0 35 1 35 40 l0 40 40 0 c39 0 40 1 40 35 0 33 2 35 35 35 33 0 35 2 35 34
0 33 2 35 38 38 35 3 37 5 40 41 3 35 5 37 38 37 32 0 34 2 34 34 0 33 2 35
38 38 34 3 37 6 40 35 3 32 3 32 73 39 l69 7 0 33 c0 32 2 34 34 34 33 0 35 2
38 38 3 35 5 37 41 40 35 3 37 5 37 38 0 32 2 34 35 34 33 0 35 2 35 35 0 34
1 35 40 35 l40 0 0 40 c0 39 1 40 35 40 33 0 35 2 35 35 0 34 1 35 40 35 39 0
40 1 40 34 l0 34 70 7 70 7 0 34 c0 33 1 34 40 34 l40 0 0 40 c0 39 1 40 35
40 33 0 35 2 35 35 0 34 1 35 40 35 39 0 40 1 40 35 0 33 2 35 35 35 34 0 35
1 35 40 l0 40 40 0 c39 0 40 1 40 35 0 33 2 35 35 35 33 0 35 2 35 34 0 33 2
35 38 38 35 3 37 5 40 41 l3 37 70 0 69 0 0 40 c0 39 1 40 34 40 32 0 35 3 38
33 3 29 6 32 41 35 35 3 37 5 37 38 0 32 2 34 34 34 33 0 35 2 38 38 3 35 5
37 41 40 35 3 37 5 37 38 0 32 2 34 35 34 33 0 35 2 35 34 0 33 2 35 38 38 35
3 37 5 40 41 3 35 5 37 38 37 32 0 34 2 34 34 l0 33 69 7 c70 7 70 7 73 39 3
29 6 32 41 35 35 3 37 5 37 38 0 33 1 34 40 34 l40 0 0 40 c0 39 1 40 35 40
33 0 35 2 35 35 0 34 1 35 40 35 39 0 40 1 40 35 0 33 2 35 35 35 34 0 35 1
35 40 l0 40 40 0 c39 0 40 1 40 35 0 33 2 35 35 35 33 0 35 2 35 34 l0 34 70
7 70 7 0 34 c0 33 1 34 40 34 l40 0 0 40 c0 39 1 40 35 40 33 0 35 2 35 35 0
34 1 35 40 35 39 0 40 1 40 35 0 33 2 35 34 35 33 0 35 2 38 38 3 35 5 37 41
40 35 3 37 5 37 38 0 32 2 34 35 34 33 0 35 2 35 34 0 33 2 35 38 38 35 3 37
5 40 41 l3 37 69 0 69 0 3 38 c3 35 5 37 41 40 35 3 37 5 37 38 0 32 2 34 35
34 33 0 35 2 35 34 0 33 2 35 38 38 35 3 37 5 40 41 3 35 5 37 38 37 32 0 34
2 34 35 0 34 1 35 40 35 39 0 40 1 40 35 0 33 2 35 35 35 34 0 35 1 35 40 l0
40 40 0 c39 0 40 1 40 34 l0 34 70 7 70 7 0 34 c0 32 2 34 35 34 33 0 35 2 35
35 0 34 1 35 40 35 l40 0 0 40 c0 39 1 40 35 40 33 0 35 2 35 35 0 34 1 35 40
35 39 0 40 1 40 35 0 33 2 35 35 35 34 0 35 1 35 40 l0 40 40 0 c39 0 40 1 40
35 0 33 2 35 35 35 33 0 35 2 35 35 0 33 -2 35 -35 35 -33 0 -35 -2 -35 -35z
m-4610 -4075 c0 -27 -3 -30 -30 -30 -27 0 -30 3 -30 30 0 27 3 30 30 30 27 0
30 -3 30 -30z m-70 -75 c0 -33 -2 -35 -35 -35 -33 0 -35 2 -35 35 0 33 2 35
35 35 33 0 35 -2 35 -35z m-300 -220 c0 -32 -2 -35 -30 -35 -28 0 -30 3 -30
35 0 32 2 35 30 35 28 0 30 -3 30 -35z m-70 -80 c0 -33 -2 -35 -35 -35 -33 0
-35 -2 -35 -35 0 -33 -2 -35 -35 -35 -33 0 -35 2 -35 35 0 33 2 35 35 35 33 0
35 2 35 35 0 33 2 35 35 35 33 0 35 -2 35 -35z m-150 -140 c0 -33 -2 -35 -35
-35 -33 0 -35 2 -35 35 0 33 2 35 35 35 33 0 35 -2 35 -35z m-70 -80 c0 -33
-2 -35 -35 -35 -33 0 -35 2 -35 35 0 33 2 35 35 35 33 0 35 -2 35 -35z m-80
-70 c0 -33 -2 -35 -35 -35 -33 0 -35 2 -35 35 0 33 2 35 35 35 33 0 35 -2 35
-35z m-140 -80 c0 -33 -2 -35 -35 -35 -33 0 -35 -2 -35 -35 0 -34 -1 -35 -40
-35 l-40 0 0 -40 c0 -39 -1 -40 -35 -40 -33 0 -35 -2 -35 -35 0 -34 -1 -35
-40 -35 l-40 0 0 -40 c0 -39 -1 -40 -35 -40 -33 0 -35 -2 -35 -35 0 -34 -1
-35 -40 -35 -39 0 -40 -1 -40 -35 0 -33 -2 -35 -34 -35 -33 0 -35 -2 -38 -37
l-3 -38 -72 -3 -73 -3 0 -34 c0 -33 -2 -35 -35 -35 -33 0 -35 2 -35 35 0 33 2
35 35 35 34 0 35 1 35 40 l0 40 40 0 c39 0 40 1 40 35 0 33 2 35 35 35 33 0
35 2 35 34 l0 33 69 7 c70 7 70 7 73 39 3 29 6 32 41 35 35 3 37 5 37 38 0 33
1 34 40 34 l40 0 0 40 c0 39 1 40 35 40 33 0 35 2 35 35 0 34 1 35 40 35 39 0
40 1 40 35 0 33 2 35 35 35 33 0 35 -2 35 -35z"/>
<path d="M3340 14460 c0 -39 -1 -40 -35 -40 l-34 0 -3 -72 -3 -73 -31 -3 c-30
-3 -32 -6 -38 -55 -3 -29 -6 -78 -6 -109 l0 -58 -35 0 -35 0 0 -57 c0 -32 -3
-81 -6 -110 -6 -49 -8 -52 -38 -55 l-31 -3 -3 -72 -3 -73 -34 0 -35 0 0 -110
0 -110 -34 0 -34 0 -7 -80 c-7 -79 -7 -80 -35 -80 -25 0 -28 -4 -34 -46 -3
-26 -6 -73 -6 -105 l0 -59 -35 0 -35 0 0 -57 c0 -32 -3 -81 -6 -110 -6 -49 -8
-52 -38 -55 l-31 -3 -3 -77 -3 -78 -34 0 -35 0 0 -70 0 -70 35 0 c33 0 35 2
35 35 0 33 2 35 34 35 l34 0 7 75 7 75 34 0 34 0 0 75 0 75 34 0 34 0 7 75 7
75 34 0 34 0 0 70 0 70 34 0 34 0 7 75 7 75 34 0 c33 0 34 1 34 40 0 39 1 40
35 40 l35 0 0 69 0 70 38 3 c35 3 37 5 40 41 3 35 5 37 38 37 33 0 34 1 34 40
0 39 1 40 35 40 33 0 35 2 35 35 0 34 1 35 40 35 l40 0 0 40 c0 39 1 40 35 40
33 0 35 2 35 35 0 33 2 35 35 35 33 0 35 2 35 35 0 34 1 35 40 35 39 0 40 1
40 34 l0 34 69 7 c69 7 70 7 73 38 l3 32 78 3 77 3 0 34 0 34 73 3 72 3 3 31
c3 30 6 32 55 38 29 3 112 6 185 6 l132 0 0 35 0 35 740 0 740 0 0 -35 c0 -33
-2 -35 -34 -35 l-34 0 -7 -75 -7 -75 -34 0 c-33 0 -34 -1 -34 -40 0 -39 -1
-40 -35 -40 l-35 0 0 -69 0 -70 -37 -3 c-36 -3 -38 -5 -41 -40 -3 -36 -5 -38
-37 -38 l-34 0 -3 -72 -3 -73 -32 -3 c-29 -3 -32 -7 -35 -40 -3 -34 -6 -37
-35 -40 -32 -3 -32 -3 -39 -73 l-7 -69 -32 0 -33 0 -7 -69 c-7 -69 -7 -70 -38
-73 -29 -3 -32 -7 -35 -40 -3 -36 -5 -38 -38 -38 l-34 0 0 -75 0 -75 -40 0
-40 0 0 -40 c0 -39 -1 -40 -35 -40 l-35 0 0 -70 0 -70 -34 0 c-33 0 -35 -2
-38 -37 -3 -36 -5 -38 -40 -41 l-38 -3 0 -70 0 -69 -35 0 c-34 0 -35 -1 -35
-40 0 -39 -1 -40 -34 -40 l-34 0 -7 -75 -7 -75 -33 0 -32 0 -7 -69 c-7 -70 -7
-70 -39 -73 -29 -3 -32 -6 -35 -40 -3 -36 -5 -38 -38 -38 l-34 0 0 -75 0 -75
-35 0 c-33 0 -35 -2 -35 -34 0 -33 -2 -35 -37 -38 l-38 -3 -3 -72 -3 -73 -34
0 c-34 0 -35 -1 -35 -40 0 -39 -1 -40 -34 -40 l-34 0 -7 -70 -7 -70 -34 0
c-33 0 -34 -1 -34 -40 0 -39 -1 -40 -34 -40 l-34 0 -7 -75 -7 -75 -34 0 c-32
0 -34 -2 -34 -35 0 -33 -2 -35 -35 -35 l-35 0 0 -75 0 -75 -34 0 -34 0 -7 -70
-7 -70 -34 0 c-33 0 -34 -1 -34 -40 0 -39 -1 -40 -34 -40 l-34 0 -7 -75 -7
-75 -34 0 c-33 0 -34 -1 -34 -40 0 -39 -1 -40 -34 -40 l-34 0 -7 -70 -7 -70
-34 0 c-33 0 -34 -1 -34 -40 0 -39 -1 -40 -35 -40 l-35 0 0 -69 0 -70 -37 -3
c-36 -3 -38 -5 -41 -40 -3 -36 -5 -38 -38 -38 l-34 0 0 -75 0 -75 -34 0 -34 0
-7 -70 -7 -70 -34 0 c-33 0 -34 -1 -34 -40 0 -39 -1 -40 -34 -40 l-33 0 -7
-69 c-7 -70 -7 -70 -39 -73 -29 -3 -32 -6 -35 -40 -3 -36 -5 -38 -38 -38 l-34
0 0 -75 0 -75 -34 0 c-33 0 -35 -2 -38 -37 -3 -36 -5 -38 -40 -41 l-38 -3 0
-70 0 -69 -35 0 c-34 0 -35 -1 -35 -40 l0 -40 1965 0 1965 0 0 75 0 75 35 0
34 0 3 148 3 147 31 3 c30 3 32 6 38 55 3 29 6 94 6 145 l0 92 35 0 35 0 0
150 0 150 34 0 34 0 7 150 7 150 34 0 34 0 0 145 0 145 35 0 35 0 0 98 c0 53
3 121 6 150 6 49 8 52 35 52 15 0 30 4 34 10 3 5 3 39 -1 75 -7 63 -7 65 -35
65 -26 0 -29 -3 -29 -35 0 -34 -1 -35 -40 -35 l-40 0 0 -110 0 -110 -34 0 -33
0 -7 -61 c-3 -34 -6 -86 -6 -115 l0 -54 -35 0 -35 0 0 -75 0 -75 -35 0 -34 0
-3 -72 -3 -73 -37 -3 -38 -3 0 -70 0 -69 -35 0 -35 0 0 -74 0 -75 -37 -3 c-36
-3 -38 -5 -41 -40 -3 -36 -5 -38 -38 -38 l-34 0 0 -69 0 -70 -37 -3 c-36 -3
-38 -5 -41 -40 -3 -36 -5 -38 -38 -38 -32 0 -34 -2 -34 -35 0 -33 -2 -35 -34
-35 -33 0 -35 -2 -38 -37 -3 -36 -5 -38 -40 -41 -36 -3 -38 -5 -38 -38 0 -32
-2 -34 -35 -34 -33 0 -35 -2 -35 -34 l0 -34 -75 -7 -75 -7 0 -34 0 -34 -75 0
-75 0 0 -34 c0 -33 -1 -33 -52 -40 -29 -3 -79 -6 -110 -6 l-58 0 0 -35 0 -35
-150 0 -150 0 0 -35 0 -35 -780 0 -781 0 3 73 3 72 38 3 37 3 0 70 0 69 34 0
34 0 7 75 7 75 34 0 c33 0 34 1 34 40 0 39 1 40 35 40 l35 0 0 69 0 70 38 3
c35 3 37 5 40 41 3 35 5 37 38 37 l34 0 0 75 0 75 34 0 c33 0 35 2 38 38 3 34
6 37 35 40 32 3 32 3 39 73 l7 69 32 0 33 0 7 75 7 75 34 0 c32 0 34 2 34 35
0 33 2 35 35 35 l35 0 0 75 0 75 34 0 c33 0 35 2 38 38 3 34 6 37 35 40 32 3
32 3 39 73 l7 69 32 0 33 0 7 75 7 75 34 0 c33 0 34 1 34 40 0 39 1 40 35 40
l35 0 0 69 0 70 38 3 c35 3 37 5 40 41 3 35 5 37 38 37 l34 0 0 75 0 75 34 0
c33 0 35 2 38 38 3 34 6 37 35 40 32 3 32 3 39 73 l7 69 32 0 32 0 7 69 c7 70
7 70 39 73 29 3 32 6 35 41 3 35 5 37 38 37 l34 0 0 75 0 75 34 0 c33 0 35 2
38 38 3 34 6 37 35 40 32 3 32 3 39 73 l7 69 32 0 33 0 7 75 7 75 34 0 c33 0
34 1 34 40 0 39 1 40 35 40 l35 0 0 69 0 70 38 3 c35 3 37 5 40 41 3 35 5 37
38 37 l34 0 0 75 0 75 35 0 c33 0 35 2 35 35 0 33 2 35 34 35 l34 0 7 75 7 75
33 0 32 0 7 69 c7 70 7 70 39 73 29 3 32 6 35 41 3 35 5 37 38 37 l34 0 0 75
0 75 34 0 c33 0 35 2 38 38 3 34 6 37 35 40 32 3 32 3 39 73 l7 69 32 0 33 0
7 75 7 75 34 0 c33 0 34 1 34 40 0 39 1 40 35 40 l35 0 0 69 0 70 38 3 c35 3
37 5 40 41 3 35 5 37 38 37 l34 0 0 75 0 75 -1780 0 -1780 0 0 -40z"/>
<path d="M8530 9300 l0 -150 75 0 75 0 0 -35 0 -35 75 0 75 0 0 -75 0 -75
-185 0 -185 0 0 -145 0 -145 35 0 c34 0 35 -1 35 -40 l0 -41 148 3 147 3 3
148 3 147 34 0 c33 0 35 2 35 35 0 34 1 35 40 35 l40 0 0 -179 0 -178 53 -7
c28 -3 112 -6 185 -6 l132 0 0 150 0 150 -115 0 -115 0 0 34 0 34 -70 7 -70 7
0 34 c0 32 2 34 35 34 33 0 35 2 35 35 l0 35 185 0 185 0 0 40 c0 39 -1 40
-35 40 -33 0 -35 2 -35 35 0 33 2 35 35 35 l35 0 0 69 0 68 -52 7 c-29 3 -95
6 -145 6 l-93 0 0 35 c0 33 -2 35 -34 35 -33 0 -33 -1 -40 -52 -3 -29 -6 -97
-6 -150 l0 -98 -35 0 c-33 0 -35 -2 -35 -35 0 -34 -1 -35 -40 -35 l-40 0 0 70
0 70 -35 0 -35 0 0 115 0 115 -150 0 -150 0 0 -150z"/>
<path d="M8160 8525 c0 -33 -2 -35 -35 -35 -34 0 -35 -1 -35 -40 l0 -40 -40 0
c-39 0 -40 -1 -40 -35 0 -33 -2 -35 -35 -35 -33 0 -35 -2 -35 -34 0 -33 -2
-35 -37 -38 -36 -3 -38 -5 -41 -40 -3 -36 -5 -38 -38 -38 -32 0 -34 -2 -34
-34 0 -33 -2 -35 -37 -38 -35 -3 -38 -6 -41 -35 -3 -32 -3 -32 -73 -39 l-69
-7 0 -33 c0 -32 -2 -34 -34 -34 -33 0 -35 -2 -38 -37 -3 -36 -5 -38 -40 -41
-36 -3 -38 -5 -38 -38 0 -32 -2 -34 -35 -34 -33 0 -35 -2 -35 -34 0 -33 -2
-35 -37 -38 -36 -3 -38 -5 -41 -40 -3 -36 -5 -38 -38 -38 -32 0 -34 -2 -34
-35 0 -34 -1 -35 -40 -35 l-40 0 0 -40 0 -40 -40 0 c-39 0 -40 -1 -40 -35 l0
-35 -70 0 -70 0 0 -40 c0 -39 -1 -40 -35 -40 -33 0 -35 -2 -35 -35 0 -34 -1
-35 -40 -35 -39 0 -40 -1 -40 -35 0 -33 -2 -35 -35 -35 -34 0 -35 -1 -35 -40
l0 -40 -40 0 c-39 0 -40 -1 -40 -35 0 -33 -2 -35 -35 -35 -33 0 -35 -2 -35
-34 0 -33 -2 -35 -37 -38 -36 -3 -38 -5 -41 -40 -3 -36 -5 -38 -38 -38 -32 0
-34 -2 -34 -34 l0 -34 -70 -7 -70 -7 0 -34 c0 -33 -1 -34 -40 -34 -39 0 -40
-1 -40 -34 0 -33 -2 -35 -37 -38 -36 -3 -38 -5 -41 -40 -3 -36 -5 -38 -38 -38
-32 0 -34 -2 -34 -35 0 -33 -2 -35 -35 -35 -33 0 -35 -2 -35 -35 0 -34 -1 -35
-40 -35 l-40 0 0 -40 0 -40 -40 0 c-39 0 -40 -1 -40 -35 0 -33 -2 -35 -35 -35
-33 0 -35 -2 -35 -34 l0 -34 -70 -7 -70 -7 0 -33 c0 -32 -2 -34 -37 -37 -36
-3 -38 -5 -41 -40 -3 -36 -5 -38 -38 -38 -32 0 -34 -2 -34 -35 0 -34 -1 -35
-40 -35 -39 0 -40 -1 -40 -35 0 -33 -2 -35 -35 -35 -34 0 -35 -1 -35 -40 l0
-40 -40 0 c-39 0 -40 -1 -40 -35 0 -33 -2 -35 -35 -35 -33 0 -35 -2 -35 -34 0
-33 -2 -35 -37 -38 -36 -3 -38 -5 -41 -40 l-3 -38 -70 0 -69 0 0 -40 c0 -39
-1 -40 -35 -40 -33 0 -35 -2 -35 -35 0 -34 -1 -35 -40 -35 -39 0 -40 -1 -40
-35 0 -33 -2 -35 -34 -35 -33 0 -35 -2 -38 -37 -3 -36 -5 -38 -40 -41 -36 -3
-38 -5 -38 -37 0 -32 -2 -34 -37 -37 -35 -3 -38 -6 -41 -35 -3 -28 -7 -32 -35
-35 -29 -3 -32 -7 -35 -39 l-3 -37 -69 -6 c-68 -7 -69 -7 -72 -39 -3 -29 -6
-32 -40 -35 -36 -3 -38 -5 -38 -38 0 -32 -2 -34 -35 -34 -33 0 -35 -2 -35 -34
0 -33 -2 -35 -37 -38 -36 -3 -38 -5 -41 -40 -3 -36 -5 -38 -38 -38 -32 0 -34
-2 -34 -35 0 -34 -1 -35 -40 -35 l-40 0 0 -40 c0 -39 -1 -40 -35 -40 -33 0
-35 -2 -35 -35 0 -34 -1 -35 -40 -35 -39 0 -40 -1 -40 -34 l0 -34 -70 -7 -70
-7 0 -34 c0 -32 -2 -34 -35 -34 -33 0 -35 -2 -35 -35 0 -34 -1 -35 -40 -35
l-40 0 0 -40 0 -40 -40 0 c-39 0 -40 -1 -40 -35 0 -33 -2 -35 -35 -35 -33 0
-35 -2 -35 -35 0 -33 -2 -35 -34 -35 -33 0 -35 -2 -38 -37 -3 -36 -5 -38 -40
-41 -36 -3 -38 -5 -38 -37 0 -32 -2 -34 -37 -37 -35 -3 -38 -6 -41 -35 -3 -32
-3 -32 -73 -39 l-69 -7 0 -33 c0 -32 -2 -34 -34 -34 -33 0 -35 -2 -38 -37 -3
-36 -5 -38 -40 -41 -36 -3 -38 -5 -38 -38 0 -32 -2 -34 -35 -34 -33 0 -35 -2
-35 -34 0 -33 -2 -35 -37 -38 -36 -3 -38 -5 -41 -40 -3 -36 -5 -38 -38 -38
-32 0 -34 -2 -34 -35 0 -34 -1 -35 -40 -35 -39 0 -40 -1 -40 -35 0 -33 -2 -35
-35 -35 -34 0 -35 -1 -35 -39 l0 -38 -69 -7 c-70 -7 -70 -7 -73 -39 -3 -29 -6
-32 -40 -35 -36 -3 -38 -5 -38 -38 0 -33 -1 -34 -40 -34 -39 0 -40 -1 -40 -35
0 -33 -2 -35 -35 -35 -34 0 -35 -1 -35 -40 l0 -40 -40 0 c-39 0 -40 -1 -40
-35 0 -33 -2 -35 -35 -35 -34 0 -35 -1 -35 -40 l0 -40 -40 0 c-39 0 -40 -1
-40 -35 0 -33 -2 -35 -35 -35 -33 0 -35 -2 -35 -34 l0 -34 -70 -7 -70 -7 0
-34 c0 -33 -1 -34 -40 -34 -39 0 -40 -1 -40 -35 0 -33 -2 -35 -35 -35 -34 0
-35 -1 -35 -40 l0 -40 -40 0 c-39 0 -40 -1 -40 -35 0 -33 -2 -35 -35 -35 -33
0 -35 -2 -35 -35 0 -33 2 -35 35 -35 33 0 35 2 35 35 0 34 1 35 40 35 39 0 40
1 40 34 l0 34 70 7 70 7 0 34 c0 33 1 34 40 34 39 0 40 1 40 35 0 33 2 35 35
35 34 0 35 1 35 40 l0 40 40 0 c39 0 40 1 40 35 0 33 2 35 35 35 33 0 35 2 35
34 0 33 2 35 38 38 35 3 37 5 40 41 l3 37 70 0 69 0 0 34 c0 33 2 35 38 38 35
3 37 5 40 41 3 35 5 37 38 37 32 0 34 2 34 35 0 34 1 35 40 35 39 0 40 1 40
35 0 33 2 35 35 35 34 0 35 1 35 40 l0 40 40 0 c39 0 40 1 40 34 l0 34 70 7
70 7 0 34 c0 33 1 34 40 34 39 0 40 1 40 35 0 33 2 35 35 35 34 0 35 1 35 40
l0 40 40 0 c39 0 40 1 40 35 0 33 2 35 35 35 33 0 35 2 35 34 l0 33 70 7 70 7
0 35 c0 33 1 34 40 34 39 0 40 1 40 34 0 33 2 35 38 38 35 3 37 5 40 41 3 35
5 37 38 37 32 0 34 2 34 34 0 33 2 35 38 38 34 3 37 6 40 36 3 29 6 32 38 32
32 0 34 2 34 34 l0 34 69 7 70 7 3 36 c3 35 5 37 41 40 35 3 37 5 37 38 0 32
2 34 35 34 33 0 35 2 35 35 0 34 1 35 40 35 39 0 40 1 40 34 0 33 2 35 38 38
35 3 37 5 40 41 l3 37 70 0 69 0 0 40 c0 39 1 40 34 40 32 0 35 3 38 33 3 29
6 32 41 35 35 3 37 5 37 38 0 32 2 34 34 34 33 0 35 2 38 38 3 35 5 37 41 40
35 3 37 5 37 38 0 33 1 34 40 34 39 0 40 1 40 34 l0 34 70 7 70 7 0 34 c0 32
2 34 35 34 33 0 35 2 35 34 0 33 2 35 38 38 35 3 37 5 40 41 3 35 5 37 38 37
32 0 34 2 34 35 0 34 1 35 40 35 39 0 40 1 40 34 0 33 2 35 38 38 35 3 37 5
40 41 l3 37 70 0 69 0 0 40 c0 39 1 40 35 40 33 0 35 2 35 35 0 34 1 35 40 35
39 0 40 1 40 35 0 33 2 35 34 35 33 0 35 2 38 38 3 35 5 37 41 40 35 3 37 5
37 36 l0 33 69 7 c70 7 70 7 73 39 3 29 6 32 41 35 35 3 37 5 37 38 0 32 2 34
35 34 33 0 35 2 35 35 0 34 1 35 40 35 l40 0 0 40 c0 39 1 40 35 40 33 0 35 2
35 35 0 34 1 35 40 35 39 0 40 1 40 34 l0 34 70 7 70 7 0 34 c0 33 1 34 40 34
l40 0 0 40 c0 39 1 40 35 40 33 0 35 2 35 35 0 34 1 35 40 35 39 0 40 1 40 35
0 33 2 35 35 35 33 0 35 2 35 34 l0 34 70 7 70 7 0 34 c0 33 1 34 39 34 39 0
40 1 43 38 3 35 5 37 41 40 35 3 37 5 37 38 0 32 2 34 35 34 33 0 35 2 35 34
0 33 2 35 38 38 35 3 37 5 40 41 3 35 5 37 38 37 32 0 34 2 34 34 l0 34 75 7
75 7 0 34 c0 32 2 34 35 34 33 0 35 2 35 35 0 34 1 35 40 35 39 0 40 1 40 35
0 33 2 35 35 35 34 0 35 1 35 40 l0 40 40 0 c39 0 40 1 40 35 0 33 2 35 35 35
33 0 35 2 35 34 l0 34 70 7 70 7 0 34 c0 33 1 34 39 34 39 0 40 1 43 38 3 35
5 37 41 40 35 3 37 5 37 38 0 32 2 34 35 34 33 0 35 2 35 34 0 33 2 35 38 38
34 3 37 6 40 35 3 32 3 32 73 39 l69 7 0 33 c0 31 2 33 38 36 35 3 37 5 40 41
3 35 5 37 38 37 32 0 34 2 34 35 0 34 1 35 40 35 39 0 40 1 40 35 0 33 2 35
35 35 34 0 35 1 35 40 0 39 1 40 35 40 33 0 35 2 35 35 0 33 -2 35 -35 35 -33
0 -35 -2 -35 -35 0 -34 -1 -35 -40 -35 -39 0 -40 -1 -40 -35 0 -33 -2 -35 -35
-35 -34 0 -35 -1 -35 -40 l0 -40 -69 0 -70 0 -3 -37 c-3 -36 -5 -38 -40 -41
-36 -3 -38 -5 -38 -38 0 -33 -1 -34 -40 -34 -39 0 -40 -1 -40 -35 0 -33 -2
-35 -35 -35 -33 0 -35 -2 -35 -34 0 -33 -2 -35 -37 -38 -36 -3 -38 -5 -41 -40
l-3 -38 -70 0 -69 0 0 35 c0 33 2 35 35 35 34 0 35 1 35 40 l0 40 40 0 c39 0
40 1 40 35 0 33 2 35 35 35 33 0 35 2 35 34 0 33 2 35 38 38 35 3 37 5 40 41
l3 37 70 0 69 0 0 40 0 40 40 0 c39 0 40 1 40 35 0 33 2 35 35 35 33 0 35 2
35 35 0 33 2 35 34 35 19 0 37 4 41 10 3 5 3 39 -1 75 l-7 65 -33 0 c-32 0
-34 -2 -34 -35z m-590 -745 c0 -39 -1 -40 -34 -40 -32 0 -35 -3 -38 -32 -3
-30 -6 -33 -40 -36 -36 -3 -38 -5 -38 -37 0 -32 -2 -34 -37 -37 -36 -3 -38 -5
-41 -40 -3 -36 -5 -38 -38 -38 -32 0 -34 -2 -34 -35 0 -34 -1 -35 -40 -35 -39
0 -40 -1 -40 -34 l0 -34 -70 -7 -70 -7 0 -34 c0 -32 -2 -34 -35 -34 -33 0 -35
-2 -35 -35 0 -34 -1 -35 -40 -35 l-40 0 0 -40 0 -40 -40 0 c-39 0 -40 -1 -40
-35 0 -33 -2 -35 -35 -35 -33 0 -35 -2 -35 -35 0 -34 -1 -35 -41 -35 -39 0
-40 1 -37 33 3 29 6 32 41 35 35 3 37 5 37 37 0 32 2 34 38 37 35 3 37 5 40
41 3 35 5 37 38 37 32 0 34 2 34 35 0 34 1 35 40 35 39 0 40 1 40 35 0 33 2
35 35 35 34 0 35 1 35 40 0 39 1 40 35 40 33 0 35 2 35 35 0 34 1 35 40 35 39
0 40 1 40 34 l0 34 70 7 70 7 0 34 c0 33 1 34 40 34 l40 0 0 40 c0 39 1 40 35
40 33 0 35 2 35 35 0 34 1 35 40 35 l40 0 0 -40z m-960 -815 c0 -34 -1 -35
-40 -35 -39 0 -40 -1 -40 -35 0 -33 -2 -35 -35 -35 -33 0 -35 2 -35 35 0 33 2
35 35 35 33 0 35 2 35 35 0 34 1 35 40 35 39 0 40 -1 40 -35z m-160 -150 c0
-33 -2 -35 -35 -35 -33 0 -35 -2 -35 -35 0 -33 -2 -35 -35 -35 -33 0 -35 2
-35 35 0 33 2 35 35 35 33 0 35 2 35 35 0 33 2 35 35 35 33 0 35 -2 35 -35z
m-150 -140 c0 -33 -2 -35 -35 -35 -32 0 -35 3 -35 28 0 16 3 32 7 35 3 4 19 7
35 7 25 0 28 -3 28 -35z m-70 -80 c0 -33 -2 -35 -35 -35 -33 0 -35 2 -35 35 0
33 2 35 35 35 33 0 35 -2 35 -35z m-300 -220 c0 -32 -2 -35 -30 -35 -28 0 -30
3 -30 35 0 32 2 35 30 35 28 0 30 -3 30 -35z m-70 -75 c0 -28 -3 -30 -35 -30
-32 0 -35 2 -35 30 0 28 3 30 35 30 32 0 35 -2 35 -30z"/>
<path d="M10503 7373 c-42 -4 -43 -5 -43 -39 l0 -34 145 0 145 0 0 -34 0 -34
74 -7 74 -7 7 -69 7 -69 34 0 34 0 0 -2335 0 -2335 -34 0 c-33 0 -35 -2 -38
-37 l-3 -38 -72 -3 -73 -3 0 -34 0 -35 -97 0 c-54 0 -122 -3 -150 -6 -49 -6
-53 -9 -53 -34 0 -25 4 -28 53 -34 28 -3 897 -6 1930 -6 l1877 0 0 35 c0 33 2
35 35 35 l35 0 0 98 c0 53 3 121 6 150 6 48 9 52 34 52 26 0 27 3 34 61 3 34
6 102 6 150 l0 89 35 0 35 0 0 145 0 145 35 0 35 0 0 89 c0 48 3 116 6 150 l7
61 33 0 34 0 0 150 0 150 35 0 35 0 0 93 c0 50 3 116 6 145 6 48 9 52 34 52
26 0 27 3 33 59 4 32 4 81 0 110 -5 48 -8 51 -34 51 -27 0 -28 -2 -35 -70 l-7
-70 -33 0 -34 0 0 -110 0 -110 -34 0 -34 0 -7 -75 -7 -75 -34 0 -34 0 0 -110
0 -110 -34 0 -34 0 -7 -75 -7 -75 -34 0 -34 0 0 -75 0 -75 -35 0 c-34 0 -35
-1 -35 -40 0 -39 -1 -40 -34 -40 l-34 0 -7 -70 -7 -70 -34 0 c-33 0 -34 -1
-34 -40 0 -39 -1 -40 -35 -40 -33 0 -35 -2 -35 -35 0 -34 -1 -35 -40 -35 l-40
0 0 -40 c0 -39 -1 -40 -35 -40 -33 0 -35 -2 -35 -35 0 -34 -1 -35 -40 -35 -39
0 -40 -1 -40 -35 0 -33 -2 -35 -35 -35 -33 0 -35 -2 -35 -34 l0 -34 -75 -7
-75 -7 0 -34 c0 -33 -1 -34 -40 -34 -39 0 -40 -1 -40 -35 l0 -35 -49 0 c-26 0
-76 -3 -110 -6 -58 -7 -61 -8 -61 -34 0 -25 -4 -28 -52 -34 -29 -3 -110 -6
-180 -6 l-128 0 0 -35 0 -35 -410 0 -410 0 0 35 0 35 -115 0 -115 0 0 34 0 34
-69 7 -68 7 -6 111 c-9 147 -9 4382 0 4520 l6 107 34 0 c32 0 33 1 33 40 l0
40 75 0 75 0 0 35 0 35 110 0 110 0 0 40 0 40 -847 -2 c-467 -1 -867 -3 -890
-5z"/>
<path d="M1260 2365 c0 -33 -2 -35 -35 -35 -33 0 -35 -2 -35 -34 0 -33 -2 -35
-37 -38 -35 -3 -38 -6 -41 -35 -3 -32 -2 -33 37 -33 40 0 41 1 41 35 0 33 2
35 35 35 33 0 35 2 35 35 0 34 1 35 40 35 39 0 40 1 40 35 0 34 -1 35 -40 35
-39 0 -40 -1 -40 -35z"/>
<path d="M970 2145 c0 -33 -2 -35 -35 -35 -33 0 -35 -2 -35 -35 0 -33 2 -35
35 -35 33 0 35 2 35 35 0 33 2 35 35 35 33 0 35 2 35 35 0 33 -2 35 -35 35
-33 0 -35 -2 -35 -35z"/>
<path d="M820 1995 c0 -33 -2 -35 -35 -35 -33 0 -35 -2 -35 -35 0 -33 2 -35
35 -35 33 0 35 2 35 35 0 33 2 35 35 35 33 0 35 2 35 35 0 33 -2 35 -35 35
-33 0 -35 -2 -35 -35z"/>
<path d="M670 1845 c0 -33 -2 -35 -35 -35 -33 0 -35 -2 -35 -35 0 -33 2 -35
35 -35 33 0 35 2 35 35 0 33 2 35 35 35 33 0 35 2 35 35 0 33 -2 35 -35 35
-33 0 -35 -2 -35 -35z"/>
</g>
</svg>
